<svg width="172" height="33" viewBox="0 0 172 33" fill="none" xmlns="http://www.w3.org/2000/svg">
<path d="M30.9715 3.88249C31.2757 1.93539 32.9528 0.5 34.9235 0.5H42.8265C45.2818 0.5 47.1576 2.69161 46.7785 5.11751L43.0285 29.1175C42.7243 31.0646 41.0472 32.5 39.0765 32.5H31.1735C28.7182 32.5 26.8424 30.3084 27.2215 27.8825L30.9715 3.88249Z" fill="#EBEBEB"/>
<path d="M34.5822 29.0068C34.8233 27.5602 36.0749 26.5 37.5414 26.5H168.459C170.312 26.5 171.723 28.1646 171.418 29.9932C171.177 31.4398 169.925 32.5 168.459 32.5H37.5414C35.6876 32.5 34.2774 30.8354 34.5822 29.0068Z" fill="#EBEBEB"/>
<path d="M14.4715 3.88249C14.7757 1.93539 16.4528 0.5 18.4235 0.5H22.8265C25.2818 0.5 27.1576 2.69161 26.7785 5.11751L23.0285 29.1175C22.7243 31.0646 21.0472 32.5 19.0765 32.5H14.6735C12.2182 32.5 10.3424 30.3084 10.7215 27.8825L14.4715 3.88249Z" fill="#CECECE"/>
<path d="M4.57573 3.21533C4.81996 1.65228 6.16626 0.5 7.74827 0.5C9.71932 0.5 11.2251 2.25933 10.9208 4.20675L6.92427 29.7847C6.68004 31.3477 5.33374 32.5 3.75172 32.5C1.78068 32.5 0.274896 30.7407 0.57918 28.7933L4.57573 3.21533Z" fill="#A8A8A8"/>
<path d="M66.9781 4.5C67.9229 4.5 68.642 5.34761 68.4882 6.2798L66.5896 17.7801C66.4421 18.6737 65.6695 19.3293 64.7638 19.3293C64.0738 19.3293 63.4412 18.9454 63.1225 18.3334L58.8031 10.0384C58.7895 10.0122 58.7624 9.99581 58.7329 9.99581C58.6941 9.99581 58.6611 10.0238 58.6547 10.0621L57.3311 18.0425C57.208 18.7849 56.5659 19.3293 55.8133 19.3293C54.8636 19.3293 54.1407 18.4772 54.2954 17.5402L56.1884 6.07286C56.3382 5.16557 57.1226 4.5 58.0422 4.5C58.7438 4.5 59.3869 4.89087 59.71 5.51362L63.9991 13.7809C64.0136 13.8087 64.0423 13.8262 64.0737 13.8262C64.1149 13.8262 64.15 13.7964 64.1566 13.7558L65.4678 5.78217C65.5895 5.04267 66.2287 4.5 66.9781 4.5Z" fill="white"/>
<path d="M74.4718 19.5465C73.3389 19.5465 72.4005 19.3148 71.6565 18.8514C70.9125 18.3831 70.3893 17.7218 70.0869 16.8674C69.7893 16.0081 69.7388 14.992 69.9357 13.819C70.1277 12.6749 70.5141 11.6709 71.0949 10.8068C71.6805 9.94271 72.4149 9.26931 73.2981 8.78658C74.1814 8.30386 75.1654 8.0625 76.2502 8.0625C76.9798 8.0625 77.6398 8.18077 78.2303 8.4173C78.8255 8.64901 79.3199 9.0014 79.7135 9.47447C80.1071 9.94271 80.3759 10.5292 80.5199 11.234C80.6687 11.9388 80.6663 12.7642 80.5127 13.7104C80.4339 14.1986 80.0124 14.5575 79.5178 14.5575H72.1592C71.5732 14.5575 71.1252 14.035 71.2146 13.4559C71.2866 12.9899 71.6877 12.646 72.1592 12.646H76.5939C77.284 12.646 77.9487 12.1112 77.7046 11.4657C77.575 11.123 77.359 10.8551 77.0566 10.662C76.7542 10.464 76.3822 10.3651 75.9406 10.3651C75.4894 10.3651 75.067 10.4761 74.6734 10.6982C74.2798 10.9202 73.9486 11.2123 73.6797 11.5743C73.4157 11.9315 73.2453 12.3201 73.1685 12.7401L72.8301 14.6372C72.7341 15.2213 72.7533 15.7064 72.8877 16.0926C73.0269 16.4788 73.2669 16.7684 73.6077 16.9615C73.9486 17.1498 74.3806 17.2439 74.9038 17.2439C75.2446 17.2439 75.5638 17.1956 75.8614 17.0991C76.1638 17.0025 76.4326 16.8601 76.6678 16.6719C76.6705 16.6697 76.6731 16.6675 76.6757 16.6654C77.1042 16.3103 77.6023 15.9791 78.1574 16.0164C79.0969 16.0796 79.6963 17.0515 79.0564 17.7422C78.9944 17.8092 78.9302 17.8748 78.8639 17.939C78.3359 18.4459 77.6998 18.8417 76.9558 19.1265C76.2166 19.4065 75.3886 19.5465 74.4718 19.5465Z" fill="white"/>
<path d="M86.1101 19.3293C85.0863 19.3293 84.2278 18.5561 84.121 17.5379L83.3179 9.88C83.2241 8.98586 83.9253 8.20732 84.8243 8.20732C85.6235 8.20732 86.2852 8.82827 86.3359 9.62588L86.7172 15.6213C86.7193 15.6543 86.7466 15.6799 86.7796 15.6799C86.8051 15.6799 86.828 15.6644 86.8375 15.6408L89.3643 9.3971C89.6553 8.67798 90.3535 8.20732 91.1293 8.20732C92.1238 8.20732 92.9508 8.97267 93.0277 9.9642L93.4633 15.5827C93.4657 15.613 93.491 15.6364 93.5214 15.6364C93.5454 15.6364 93.5669 15.6218 93.5756 15.5995L96.1346 9.09624C96.3456 8.55992 96.8633 8.20732 97.4396 8.20732C98.4501 8.20732 99.129 9.24358 98.7254 10.1699L95.2581 18.1281C94.9402 18.8576 94.2202 19.3293 93.4245 19.3293H93.2848C92.2626 19.3293 91.4049 18.5585 91.2961 17.5422L90.7471 12.4133C90.7423 12.3685 90.7045 12.3346 90.6595 12.3346C90.6245 12.3346 90.5928 12.3554 90.5788 12.3874L88.0727 18.1293C87.7546 18.8581 87.0349 19.3293 86.2397 19.3293H86.1101Z" fill="white"/>
<path d="M110.281 10.0775C110.558 10.7769 109.913 11.4146 109.163 11.4614L108.395 11.5092C108.012 11.5332 107.701 11.22 107.499 10.8937C107.384 10.6958 107.213 10.5389 106.987 10.423C106.767 10.3072 106.488 10.2492 106.152 10.2492C105.648 10.2492 105.199 10.3651 104.806 10.5968C104.412 10.8285 104.189 11.1254 104.136 11.4874C104.093 11.7191 104.153 11.9146 104.316 12.0739C104.479 12.2332 104.808 12.3684 105.303 12.4794L107.247 12.8849C108.284 13.107 109.032 13.4762 109.493 13.9928C109.959 14.5093 110.124 15.1851 109.99 16.0202C109.87 16.7298 109.56 17.3501 109.061 17.8811C108.562 18.4073 107.928 18.8176 107.16 19.112C106.392 19.4017 105.54 19.5465 104.604 19.5465C103.102 19.5465 101.959 19.2375 101.177 18.6197C100.781 18.3067 100.488 17.9374 100.3 17.5117C99.9715 16.7683 100.672 16.0738 101.484 16.0307L101.874 16.0099C102.519 15.9756 103.011 16.5752 103.517 16.976C103.81 17.2029 104.211 17.3187 104.719 17.3236C105.291 17.3332 105.775 17.2149 106.174 16.9687C106.577 16.7177 106.805 16.4136 106.858 16.0564C106.896 15.8054 106.824 15.6026 106.642 15.4482C106.464 15.2937 106.138 15.1658 105.663 15.0644L103.819 14.6806C102.773 14.4634 102.022 14.0748 101.566 13.5149C101.11 12.9549 100.954 12.2429 101.098 11.3788C101.213 10.6885 101.499 10.0972 101.955 9.6048C102.415 9.1076 103.008 8.72624 103.733 8.46075C104.463 8.19525 105.286 8.0625 106.203 8.0625C107.638 8.0625 108.718 8.35937 109.443 8.95312C109.829 9.26763 110.109 9.64242 110.281 10.0775Z" fill="white"/>
<path d="M113.094 23.5C112.158 23.5 111.446 22.6594 111.6 21.736L113.647 9.45425C113.767 8.7347 114.389 8.20732 115.119 8.20732H115.932C116.428 8.20732 116.805 8.65227 116.724 9.14139L116.584 9.98403C116.576 10.0319 116.613 10.0755 116.662 10.0755C116.689 10.0755 116.714 10.0612 116.729 10.0379C116.909 9.75075 117.143 9.45915 117.433 9.16311C117.74 8.84934 118.122 8.58867 118.578 8.3811C119.034 8.1687 119.569 8.0625 120.183 8.0625C120.995 8.0625 121.703 8.2749 122.308 8.6997C122.912 9.11966 123.349 9.75445 123.618 10.604C123.892 11.4488 123.923 12.5084 123.712 13.7828C123.51 15.0234 123.138 16.0709 122.596 16.9253C122.058 17.7749 121.412 18.4193 120.659 18.8586C119.91 19.2931 119.115 19.5103 118.275 19.5103C117.68 19.5103 117.191 19.4113 116.807 19.2134C116.427 19.0155 116.132 18.7669 115.921 18.4676C115.722 18.1806 115.578 17.8915 115.49 17.6002C115.48 17.5694 115.452 17.548 115.42 17.548C115.385 17.548 115.355 17.5734 115.349 17.608L114.589 22.231C114.468 22.9629 113.836 23.5 113.094 23.5ZM115.935 13.7683C115.83 14.4296 115.825 15.0065 115.921 15.4989C116.022 15.9912 116.223 16.375 116.526 16.6502C116.828 16.9205 117.227 17.0556 117.721 17.0556C118.22 17.0556 118.664 16.9181 119.053 16.6429C119.442 16.3629 119.766 15.9768 120.025 15.4844C120.284 14.9872 120.469 14.4151 120.579 13.7683C120.68 13.1263 120.683 12.5615 120.587 12.0739C120.491 11.5864 120.294 11.205 119.996 10.9299C119.699 10.6547 119.295 10.5171 118.787 10.5171C118.292 10.5171 117.848 10.6499 117.455 10.9154C117.066 11.1809 116.742 11.5574 116.483 12.045C116.223 12.5325 116.041 13.107 115.935 13.7683Z" fill="white"/>
<path d="M129.581 12.8994L128.725 18.0661C128.604 18.7949 127.974 19.3293 127.235 19.3293C126.303 19.3293 125.594 18.493 125.746 17.5733L127.701 5.72983C127.818 5.02041 128.431 4.5 129.15 4.5C130.056 4.5 130.746 5.31112 130.6 6.20483L129.969 10.0894C129.962 10.1314 129.994 10.1696 130.037 10.1696C130.062 10.1696 130.086 10.1556 130.098 10.1334C130.451 9.49418 130.932 8.99213 131.54 8.62729C132.159 8.25076 132.891 8.0625 133.736 8.0625C134.504 8.0625 135.145 8.23145 135.658 8.56936C136.177 8.90244 136.544 9.38275 136.76 10.0103C136.976 10.633 137.012 11.3788 136.868 12.2477L135.898 18.0673C135.776 18.7955 135.146 19.3293 134.408 19.3293C133.475 19.3293 132.765 18.4925 132.918 17.5724L133.707 12.798C133.817 12.1126 133.729 11.5791 133.441 11.1978C133.157 10.8164 132.706 10.6258 132.087 10.6258C131.669 10.6258 131.285 10.7151 130.935 10.8937C130.585 11.0723 130.289 11.333 130.049 11.6757C129.814 12.0136 129.658 12.4215 129.581 12.8994Z" fill="white"/>
<path d="M143.706 19.5465C142.573 19.5465 141.635 19.3148 140.891 18.8514C140.147 18.3831 139.624 17.7218 139.321 16.8674C139.024 16.0081 138.973 14.992 139.17 13.819C139.362 12.6749 139.748 11.6709 140.329 10.8068C140.915 9.94271 141.649 9.26931 142.533 8.78658C143.416 8.30386 144.4 8.0625 145.485 8.0625C146.214 8.0625 146.874 8.18077 147.465 8.4173C148.06 8.64901 148.554 9.0014 148.948 9.47447C149.342 9.94271 149.61 10.5292 149.754 11.234C149.903 11.9388 149.901 12.7642 149.747 13.7104C149.668 14.1986 149.247 14.5575 148.752 14.5575H141.394C140.808 14.5575 140.36 14.035 140.449 13.4559C140.521 12.9899 140.922 12.646 141.394 12.646H145.828C146.518 12.646 147.183 12.1112 146.939 11.4657C146.809 11.123 146.593 10.8551 146.291 10.662C145.989 10.464 145.617 10.3651 145.175 10.3651C144.724 10.3651 144.301 10.4761 143.908 10.6982C143.514 10.9202 143.183 11.2123 142.914 11.5743C142.65 11.9315 142.48 12.3201 142.403 12.7401L142.065 14.6372C141.969 15.2213 141.988 15.7064 142.122 16.0926C142.261 16.4788 142.501 16.7684 142.842 16.9615C143.183 17.1498 143.615 17.2439 144.138 17.2439C144.479 17.2439 144.798 17.1956 145.096 17.0991C145.398 17.0025 145.667 16.8601 145.902 16.6719C145.905 16.6697 145.908 16.6675 145.91 16.6654C146.339 16.3103 146.837 15.9791 147.392 16.0164C148.331 16.0796 148.931 17.0515 148.291 17.7422C148.229 17.8092 148.165 17.8748 148.098 17.939C147.57 18.4459 146.934 18.8417 146.19 19.1265C145.451 19.4065 144.623 19.5465 143.706 19.5465Z" fill="white"/>
<path d="M153.224 19.3293C152.29 19.3293 151.58 18.4914 151.732 17.5704L153.081 9.43345C153.198 8.72606 153.81 8.20732 154.527 8.20732H155.274C155.789 8.20732 156.181 8.66973 156.096 9.17759L155.946 10.0742C155.94 10.1128 155.969 10.1479 156.008 10.1479C156.033 10.1479 156.056 10.1334 156.066 10.111C156.381 9.43899 156.8 8.92993 157.323 8.58384C157.861 8.22663 158.439 8.04802 159.059 8.04802C159.212 8.04802 159.373 8.05767 159.541 8.07698C159.804 8.09901 159.968 8.34983 159.925 8.60992L159.639 10.3131C159.588 10.6156 159.27 10.8132 158.965 10.7778C158.72 10.744 158.487 10.7271 158.267 10.7271C157.82 10.7271 157.405 10.8261 157.021 11.024C156.637 11.2171 156.313 11.4874 156.049 11.835C155.79 12.1825 155.619 12.5832 155.538 13.037L154.716 18.0617C154.596 18.7926 153.964 19.3293 153.224 19.3293Z" fill="white"/>
<path d="M164.842 19.5465C163.709 19.5465 162.771 19.3148 162.027 18.8514C161.283 18.3831 160.76 17.7218 160.457 16.8674C160.159 16.0081 160.109 14.992 160.306 13.819C160.498 12.6749 160.884 11.6709 161.465 10.8068C162.051 9.94271 162.785 9.26931 163.668 8.78658C164.552 8.30386 165.536 8.0625 166.62 8.0625C167.35 8.0625 168.01 8.18077 168.601 8.4173C169.196 8.64901 169.69 9.0014 170.084 9.47447C170.477 9.94271 170.746 10.5292 170.89 11.234C171.039 11.9388 171.037 12.7642 170.883 13.7104C170.804 14.1986 170.383 14.5575 169.888 14.5575H162.529C161.943 14.5575 161.495 14.035 161.585 13.4559C161.657 12.9899 162.058 12.646 162.529 12.646H166.964C167.654 12.646 168.319 12.1112 168.075 11.4657C167.945 11.123 167.729 10.8551 167.427 10.662C167.124 10.464 166.752 10.3651 166.311 10.3651C165.86 10.3651 165.437 10.4761 165.044 10.6982C164.65 10.9202 164.319 11.2123 164.05 11.5743C163.786 11.9315 163.616 12.3201 163.539 12.7401L163.2 14.6372C163.104 15.2213 163.124 15.7064 163.258 16.0926C163.397 16.4788 163.637 16.7684 163.978 16.9615C164.319 17.1498 164.751 17.2439 165.274 17.2439C165.615 17.2439 165.934 17.1956 166.232 17.0991C166.534 17.0025 166.803 16.8601 167.038 16.6719C167.041 16.6697 167.043 16.6675 167.046 16.6654C167.474 16.3103 167.973 15.9791 168.528 16.0164C169.467 16.0796 170.067 17.0515 169.427 17.7422C169.365 17.8092 169.3 17.8748 169.234 17.939C168.706 18.4459 168.07 18.8417 167.326 19.1265C166.587 19.4065 165.759 19.5465 164.842 19.5465Z" fill="white"/>
</svg>
